<svg width="40" height="40" viewBox="0 0 40 40" fill="none" xmlns="http://www.w3.org/2000/svg">
<rect width="40" height="40" rx="8" fill="#005EB8"/>
<path d="M25 10.9873C26.1 10.9873 27.0417 11.379 27.825 12.1623C28.6083 12.9456 29 13.8873 29 14.9873C29 15.1706 28.9875 15.4165 28.9625 15.7248C28.9375 16.0331 28.9 16.3873 28.85 16.7873L27.475 26.8623C27.3917 27.4956 27.1042 28.0123 26.6125 28.4123C26.1208 28.8123 25.5583 29.0123 24.925 29.0123C24.5417 29.0123 24.1875 28.929 23.8625 28.7623C23.5375 28.5956 23.2667 28.3623 23.05 28.0623L20.375 24.1623C20.3417 24.0956 20.2875 24.0498 20.2125 24.0248C20.1375 23.9998 20.0583 23.9873 19.975 23.9873C19.9083 23.9873 19.775 24.0623 19.575 24.2123L16.975 27.9873C16.7417 28.3206 16.4542 28.5748 16.1125 28.7498C15.7708 28.9248 15.4083 29.0123 15.025 29.0123C14.3917 29.0123 13.8333 28.8081 13.35 28.3998C12.8667 27.9915 12.5833 27.4706 12.5 26.8373L11.15 16.7873C11.1 16.3873 11.0625 16.0331 11.0375 15.7248C11.0125 15.4165 11 15.1706 11 14.9873C11 13.8873 11.3917 12.9456 12.175 12.1623C12.9583 11.379 13.9 10.9873 15 10.9873C15.6 10.9873 16.0792 11.0665 16.4375 11.2248C16.7958 11.3831 17.1417 11.554 17.475 11.7373C17.8083 11.9206 18.1625 12.0915 18.5375 12.2498C18.9125 12.4081 19.4 12.4873 20 12.4873C20.6 12.4873 21.0875 12.4081 21.4625 12.2498C21.8375 12.0915 22.1917 11.9206 22.525 11.7373C22.8583 11.554 23.2083 11.3831 23.575 11.2248C23.9417 11.0665 24.4167 10.9873 25 10.9873ZM25 12.9873C24.6167 12.9873 24.2792 13.0665 23.9875 13.2248C23.6958 13.3831 23.375 13.554 23.025 13.7373C22.675 13.9206 22.2667 14.0915 21.8 14.2498C21.3333 14.4081 20.7333 14.4873 20 14.4873C19.2667 14.4873 18.6667 14.4081 18.2 14.2498C17.7333 14.0915 17.325 13.9206 16.975 13.7373C16.625 13.554 16.3042 13.3831 16.0125 13.2248C15.7208 13.0665 15.3833 12.9873 15 12.9873C14.45 12.9873 13.9792 13.1831 13.5875 13.5748C13.1958 13.9665 13 14.4373 13 14.9873C13 15.1206 13.0083 15.3123 13.025 15.5623C13.0417 15.8123 13.075 16.104 13.125 16.4373L14.5 26.5623C14.5167 26.6956 14.575 26.7998 14.675 26.8748C14.775 26.9498 14.8917 26.9873 15.025 26.9873C15.1083 26.9873 15.1833 26.9706 15.25 26.9373C15.3167 26.904 15.3667 26.854 15.4 26.7873L17.925 23.0873C18.1583 22.754 18.4583 22.4873 18.825 22.2873C19.1917 22.0873 19.5833 21.9873 20 21.9873C20.4167 21.9873 20.8083 22.0873 21.175 22.2873C21.5417 22.4873 21.8417 22.754 22.075 23.0873L24.65 26.8623C24.6833 26.9123 24.725 26.9498 24.775 26.9748C24.825 26.9998 24.8833 27.0123 24.95 27.0123C25.0833 27.0123 25.2042 26.9748 25.3125 26.8998C25.4208 26.8248 25.4833 26.7206 25.5 26.5873L26.875 16.4373C26.925 16.104 26.9583 15.8123 26.975 15.5623C26.9917 15.3123 27 15.1206 27 14.9873C27 14.4373 26.8042 13.9665 26.4125 13.5748C26.0208 13.1831 25.55 12.9873 25 12.9873Z" fill="white"/>
</svg>
