<svg xmlns="http://www.w3.org/2000/svg" width="1024" height="1024" viewBox="0 0 1024 1024">
  <rect width="1024" height="1024" rx="180" fill="#005EB8"/>
  <path d="M640 220C672 220 700 238 718 264C736 290 740 320 732 346C730 350 728 354 726 358L680 560C678 568 674 574 668 580C662 586 654 590 646 590C638 590 630 586 624 580C618 574 614 568 612 560L566 358C564 354 562 350 560 346C552 320 556 290 574 264C592 238 620 220 652 220C672 220 690 228 704 242C718 256 726 274 726 294C726 314 718 332 704 346C690 360 672 368 652 368C648 368 644 368 640 366L576 340C568 336 560 334 552 336C544 338 536 344 530 352L492 414C484 424 476 432 466 436C456 440 446 440 436 436C426 432 418 424 410 414L372 352C366 344 358 338 350 336C342 334 334 336 326 340L262 366C258 368 254 368 250 368C230 368 212 360 198 346C184 332 176 314 176 294C176 274 184 256 198 242C212 228 230 220 250 220C258 220 266 222 272 226L326 258C334 262 342 260 350 256C358 252 366 244 372 236L410 174C418 164 426 156 436 152C446 148 456 148 466 152C476 156 484 164 492 174L530 236C536 244 544 250 552 252C560 254 568 252 576 248L640 222C640 222 640 220 640 220Z" fill="white" transform="translate(128, 280) scale(1.6)"/>
</svg>
